<svg width="272" height="268" viewBox="0 0 272 268" fill="none" xmlns="http://www.w3.org/2000/svg">
<path d="M272 246.122V182.246L1.18598 203.942L0.486328 264.314C1.27894 264.483 1.43061 265.14 1.56761 265.765C1.64589 266.122 1.68748 266.483 1.937 266.755C2.23545 267.083 2.54614 267.132 2.76141 266.649C2.76141 266.644 2.76141 266.642 2.76141 266.637C3.42437 266.586 3.64699 267.24 4.08977 267.544C4.14114 267.482 4.19007 267.421 4.24144 267.36C4.47629 267.242 4.68423 267.294 4.92152 267.394C5.23465 267.531 5.40345 267.404 5.39611 267.088C5.55023 267.012 5.7019 266.948 5.85602 266.907C6.06885 266.921 6.25477 267.056 6.45292 267.294C6.7049 267.595 6.87125 268.159 7.47794 267.955C7.66141 267.764 7.83755 267.566 8.05772 267.411C8.62771 267.247 8.67664 266.458 9.20015 266.345C10.0392 266.164 10.8123 265.797 11.6342 265.601C12.2238 265.458 12.7008 265.248 13.0238 264.733C13.0238 264.711 13.0311 264.689 13.0335 264.667C13.3785 264.645 13.7577 264.062 14.0586 264.679C14.4818 265.552 15.4114 265.912 15.9691 266.642C16.0939 266.806 16.3336 266.823 16.544 266.735C16.9526 266.429 17.2828 266.039 17.6155 265.657C17.6767 265.618 17.7378 265.578 17.799 265.539C17.8137 265.485 17.8284 265.431 17.8455 265.378C18.2393 264.856 18.7702 265.378 19.2081 265.196C19.2399 265.142 19.2766 265.098 19.3133 265.057C19.3646 265.088 19.4185 265.081 19.4772 265.039C19.531 265.034 19.5848 265.03 19.6386 265.025C20.5731 265.034 20.9645 265.789 21.4709 266.38C21.7033 266.649 21.899 266.997 22.3369 266.698C22.4495 266.691 22.562 266.684 22.6721 266.676C22.6794 266.627 22.6868 266.578 22.6917 266.527C22.7479 266.488 22.7675 266.448 22.7577 266.412C22.973 266.345 23.1834 266.267 23.406 266.233C23.6922 266.032 23.9907 265.841 23.9931 265.476C24.1668 265.4 24.2524 265.25 24.3111 265.076L24.3038 265.069C24.4114 264.988 24.4261 264.897 24.3723 264.799C24.9349 264.687 25.0719 264.214 25.2358 263.765C25.2065 263.628 25.2309 263.493 25.2603 263.361C25.6958 263.04 26.1434 262.778 26.7868 263.155C26.9434 263.248 27.1269 263.15 27.2712 262.996C27.2981 263.001 27.3226 263.006 27.3495 263.01C27.4326 262.991 27.5109 262.961 27.5843 262.915C27.6871 262.797 27.7923 262.724 27.8974 262.68C28.1886 262.665 28.4674 262.758 28.7537 262.974C29.1133 263.243 29.4533 263.251 29.6515 262.905C29.7102 262.854 29.7664 262.79 29.8203 262.704C29.9352 262.515 30.1481 262.44 30.29 262.28C30.5737 261.989 30.8135 261.673 30.8869 261.256C30.8918 261.148 30.9015 261.04 30.9089 260.933C31.1584 260.918 31.359 261.195 31.5743 261.371C31.9168 261.467 31.8556 262.234 32.4525 261.9C32.8488 261.986 33.4384 261.741 33.6194 262.111C34.0793 263.052 34.6836 262.79 35.3514 262.493L35.3392 262.515C35.4028 262.513 35.4639 262.511 35.5275 262.508C35.8333 262.765 36.1122 262.682 36.3935 262.457C36.7116 262.199 37.0369 261.952 37.3598 261.702C37.5335 261.731 37.7072 261.763 37.8809 261.793C38.4729 261.68 38.9989 261.165 39.6643 261.499C40.3224 262.035 40.7994 261.844 41.1468 261.131C41.3938 261.148 41.5675 261.273 41.6874 261.486C41.6996 261.82 41.8953 261.986 42.2036 262.047C42.2623 262.106 42.321 262.165 42.3797 262.224C41.9981 263.067 42.913 263.417 43.072 264.054C43.2628 264.268 43.4463 264.14 43.6298 264.042C43.9209 264.111 43.9845 264.331 43.9894 264.589C43.9331 264.696 43.8769 264.802 43.8182 264.91C44.0432 265.032 44.1093 265.358 44.4469 265.353C45.4107 265.338 46.4137 265.542 47.2357 264.807C47.2406 264.691 47.243 264.574 47.2479 264.459C47.4192 264.314 47.5806 264.162 47.6026 263.92C47.6516 263.907 47.698 263.895 47.7445 263.883C48.4539 263.893 48.8992 264.351 49.3346 264.824C49.4545 265.142 49.6918 265.267 50.0245 265.282C51.3675 265.341 52.6347 264.985 53.8995 264.603C53.9019 264.603 53.9068 264.603 53.9093 264.601C53.9093 264.638 53.9068 264.674 53.9093 264.709C54.3594 264.87 54.8242 265.152 55.1667 264.535C55.2352 264.422 55.3037 264.307 55.3697 264.194C55.4431 264.128 55.5189 264.062 55.5923 263.996C55.5899 263.981 55.5826 263.969 55.5801 263.956C56.5342 263.496 57.5323 263.3 58.594 263.496C58.6821 263.922 58.8973 264.091 59.3132 263.846C59.5163 263.699 59.5432 263.363 59.8587 263.336C59.9859 263.64 60.1107 263.687 60.233 263.334C60.4972 263.069 60.8055 263.057 61.1382 263.167C61.1773 263.155 61.2189 263.145 61.258 263.133C61.3339 263.067 61.4097 263.001 61.4782 262.93C61.5394 262.888 61.6005 262.846 61.6617 262.802C61.6764 262.748 61.6959 262.697 61.7204 262.645C61.7424 262.609 61.7497 262.574 61.7449 262.542C61.7571 262.513 61.7693 262.484 61.7791 262.452C61.7864 262.43 61.7938 262.408 61.8011 262.383C62.1583 261.891 62.6206 261.516 63.1393 261.2C63.2102 261.077 63.2812 260.955 63.3521 260.83C63.4059 260.722 63.4573 260.612 63.5209 260.509C63.6139 260.379 63.7166 260.281 63.8242 260.207C64.2744 259.984 64.7 259.948 65.0401 260.692C65.1379 260.908 65.3141 260.974 65.5562 260.861C65.9574 260.675 66.3684 260.514 66.7745 260.342C67.0191 260.325 67.21 260.229 67.3127 259.992L67.3054 259.982C67.9047 259.44 68.5016 259.438 69.0961 259.992C69.5658 259.707 69.9156 259.938 70.2997 260.219C71.0213 260.746 71.7675 261.305 72.6946 260.597C72.9148 261.182 73.0983 261.834 73.93 261.347C74.3924 261.57 74.9061 261.575 75.3929 261.687C75.618 261.881 75.7256 262.229 76.0999 262.229C76.1537 262.17 76.21 262.109 76.2638 262.05C76.3372 261.756 76.4106 261.462 76.4815 261.168C76.7653 261.374 77.076 261.553 77.3255 261.795C78.1597 262.601 78.6857 262.491 79.175 261.374C79.2459 261.2 79.3168 261.026 79.3902 260.852C79.5786 260.714 79.6838 260.523 79.7352 260.3C79.7865 260.3 79.8379 260.293 79.8868 260.283C79.9578 260.244 80.0214 260.195 80.0801 260.139C80.0801 260.136 80.085 260.131 80.085 260.129C80.2978 260.146 80.4886 260.229 80.6868 260.337C81.1809 260.604 81.6653 260.585 82.0787 260.148C82.1448 259.974 82.2108 259.8 82.2793 259.627C82.2793 259.44 82.2745 259.254 82.272 259.068C82.6879 259.073 83.1038 259.083 83.5196 259.09C83.7374 259.315 83.5319 260.102 84.2584 259.651C84.4297 259.575 84.5985 259.502 84.7697 259.426C84.6939 258.997 85.1146 258.757 85.1685 258.377C85.2272 258.316 85.2859 258.254 85.3421 258.193C86.0051 257.759 86.8246 258.301 87.4949 257.865C87.4998 257.862 87.6344 258.034 87.6833 258.134C87.7885 258.347 87.923 258.695 88.1334 258.588C88.4025 258.45 88.8673 258.367 88.8013 257.872C88.8477 257.808 88.8942 257.742 88.9407 257.678C89.7749 257.071 90.751 257 91.7295 256.924C92.116 256.894 92.3631 257.071 92.461 257.429C92.6616 258.171 93.1288 258.404 93.7722 258.316C93.7991 258.355 93.826 258.392 93.8554 258.426C93.9214 258.48 93.9948 258.524 94.0755 258.551C94.1147 258.563 94.1538 258.575 94.1905 258.59C94.2003 258.673 94.2174 258.754 94.2566 258.833C94.33 258.972 94.4082 259.107 94.4988 259.232C94.5844 259.408 94.7165 259.555 94.9097 259.666C94.9562 259.7 95.0027 259.734 95.0541 259.764C95.2816 259.906 95.4528 260.139 95.7293 260.202C95.5287 260.501 95.7072 260.8 95.8051 261.099C96.0228 261.342 96.2552 261.572 96.221 261.947C96.2014 262.16 96.2332 262.415 96.5317 262.349C96.8056 262.29 96.835 262.096 96.7518 261.886C96.7959 261.883 96.8399 261.876 96.8839 261.861C97.131 261.722 97.2925 261.457 97.586 261.386C97.7255 261.31 97.8674 261.239 98.0092 261.168C98.1585 261.08 98.2955 260.967 98.4276 260.852C98.7113 260.744 98.9511 260.526 99.1982 260.33C99.3131 260.293 99.4379 260.271 99.5773 260.276C100.96 259.771 102.161 259.085 102.393 257.436C102.403 257.294 102.405 257.154 102.364 257.029C102.459 256.958 102.54 256.872 102.596 256.762C102.603 256.752 102.608 256.74 102.613 256.73C103.244 256.975 103.932 256.845 104.541 256.355C104.568 256.402 104.597 256.443 104.639 256.48C105.069 256.804 105.49 256.767 105.972 256.551C106.584 256.274 107.117 255.782 107.851 255.826C107.944 255.816 108.029 255.787 108.11 255.738C108.391 255.478 108.736 255.329 109.064 255.145C109.309 255.008 109.541 254.846 109.497 254.576C109.566 254.557 109.632 254.53 109.695 254.495C109.903 254.253 110.351 254.133 110.15 253.682C110.449 253.831 110.747 253.704 110.997 253.572C111.518 253.29 111.858 253.422 112.34 253.753C112.792 254.067 113.213 254.574 113.866 254.537C113.947 254.508 114.02 254.471 114.084 254.415C114.25 254.253 114.414 254.084 114.681 254.152C115.231 254.405 115.574 254.892 115.958 255.326C116.234 255.64 116.479 255.728 116.731 255.49C116.658 256.01 117.012 256.24 117.472 256.399C117.416 256.434 117.362 256.475 117.323 256.534C117.196 257.255 117.851 257.144 118.201 257.357C118.302 257.384 118.397 257.414 118.49 257.451C118.622 257.544 118.759 257.622 118.923 257.634C119.018 258.115 119.224 258.504 119.796 258.583C119.994 258.563 120.095 258.421 120.19 258.276C120.315 258.389 120.457 258.477 120.613 258.556C121.063 258.776 121.286 258.644 121.308 258.149C121.303 258.142 121.296 258.134 121.291 258.127C121.293 258.127 121.298 258.124 121.301 258.122C121.467 258.237 121.629 258.242 121.785 258.09C121.785 258.085 121.785 258.083 121.785 258.078C122.057 258.227 122.267 258.176 122.404 257.892C122.972 257.928 123.63 257.821 124.055 258.088C124.576 258.414 124.929 258.328 125.19 257.985C125.643 257.392 126.323 257.152 126.864 256.708C126.866 256.701 126.869 256.693 126.873 256.689C126.893 256.745 126.913 256.801 126.937 256.865C127.402 257.027 127.872 256.99 128.341 256.887C128.708 256.806 128.882 256.622 128.728 256.284C128.767 256.306 128.811 256.321 128.855 256.333C128.943 256.341 129.029 256.331 129.112 256.301C129.305 256.194 129.376 255.998 129.491 255.826C129.949 255.147 130.264 254.348 131.008 253.895C131.064 253.829 131.113 253.76 131.155 253.682C131.216 253.569 131.333 253.486 131.443 253.398C131.519 253.361 131.58 253.309 131.622 253.233C131.666 253.18 131.698 253.118 131.71 253.045C131.959 252.565 132.417 252.626 132.86 252.599C132.921 252.538 132.945 252.476 132.938 252.415C132.967 252.398 132.997 252.378 133.026 252.356C133.151 252.219 133.185 252.072 133.112 251.91C133.464 252.016 133.811 252.089 134.019 252.511C134.134 252.746 134.44 252.898 134.731 252.714C134.775 252.761 134.819 252.807 134.863 252.854C134.998 252.886 135.137 252.89 135.277 252.886C135.279 252.886 135.282 252.886 135.284 252.886C135.519 253.317 136.042 253.363 136.441 253.574C136.766 253.552 136.965 253.358 137.109 253.089C137.131 253.006 137.136 252.925 137.116 252.851C137.126 252.839 137.136 252.829 137.146 252.817C137.158 252.797 137.173 252.78 137.187 252.761C137.853 252.792 138.268 252.359 138.694 251.945C138.753 251.628 138.978 251.658 139.188 251.655C139.188 251.66 139.191 251.665 139.193 251.67C139.225 251.739 139.259 251.8 139.293 251.861C139.21 252.633 139.506 252.93 140.299 252.954C140.969 252.976 141.493 252.675 142.002 252.302C142.063 252.224 142.107 252.138 142.131 252.043C142.134 252.018 142.139 251.998 142.143 251.976C142.454 251.886 142.687 251.562 143.036 251.602C143.805 251.685 144.169 251.214 144.441 250.604C144.48 250.521 144.502 250.433 144.504 250.34C144.504 250.202 144.494 250.07 144.423 249.948C144.409 249.928 144.389 249.916 144.375 249.901C144.375 249.901 144.375 249.901 144.377 249.901C144.874 250.063 145.439 250.425 145.556 249.453C145.549 249.408 145.541 249.367 145.534 249.323C145.568 249.298 145.603 249.276 145.634 249.252C145.771 249.225 145.911 249.21 146.058 249.21C146.143 249.19 146.221 249.154 146.29 249.105C146.488 248.855 146.933 248.762 146.828 248.323C147.163 248.752 147.78 248.602 148.176 248.901C148.971 249.44 149.791 249.624 150.674 249.095C150.967 248.918 151.29 248.884 151.623 248.985C151.863 249.109 152.058 249.408 152.362 249.271C152.604 249.727 152.841 249.418 153.03 249.23C153.252 249.007 153.426 248.737 153.622 248.487C153.668 248.215 153.83 248.085 154.023 247.99C154.177 248.009 154.338 247.99 154.5 247.953C154.825 247.752 154.901 247.47 154.769 247.122C154.906 247.213 155.07 247.21 155.168 247.11C155.611 246.642 156.227 246.622 156.773 246.424C157.073 246.203 157.506 246.392 157.798 246.142C157.829 246.399 157.991 246.505 158.27 246.475C158.284 246.466 158.297 246.456 158.311 246.448C158.551 246.468 158.637 246.24 158.747 246.059C158.881 246.096 159.016 246.127 159.136 246.196C159.85 246.588 160.513 246.588 161.2 246.073C161.643 245.743 161.976 245.358 162.213 244.873C162.218 244.863 162.218 244.853 162.223 244.843C162.255 244.848 162.289 244.831 162.323 244.787C162.727 244.471 162.666 243.439 163.605 243.951C163.605 243.954 163.6 243.956 163.598 243.959C164.141 244.794 164.902 244.437 165.535 244.211C165.99 244.049 166.206 244.079 166.284 244.324C166.23 244.581 166.223 244.841 166.252 245.108C166.274 245.262 166.34 245.395 166.462 245.493C166.46 245.495 166.455 245.5 166.453 245.503C166.433 245.64 166.48 245.755 166.56 245.86C166.802 246.255 167.177 246.314 167.59 246.272C167.661 246.235 167.705 246.179 167.725 246.108C168.385 246.164 169.056 246.431 169.689 245.993C169.953 245.809 170.191 245.936 170.428 246.044C170.854 246.147 171.213 246.154 171.213 245.669C171.221 245.669 171.23 245.669 171.238 245.667C171.309 245.62 171.37 245.561 171.416 245.49C171.45 245.412 171.463 245.329 171.453 245.243C171.448 245.206 171.431 245.169 171.414 245.135C171.6 245.022 171.8 244.968 172.008 244.932C172.37 244.951 172.735 244.775 173.097 244.841C173.178 244.834 173.256 244.821 173.334 244.797C173.439 244.799 173.545 244.787 173.65 244.767C174.004 244.914 174.359 245.071 174.763 244.777C174.875 244.694 174.993 244.763 175.064 244.863C175.492 245.471 175.477 245.135 175.492 244.863C175.685 244.892 175.822 245.027 175.979 245.12C176.042 245.147 176.108 245.164 176.177 245.174C176.502 245.505 176.81 244.809 177.136 244.971C177.645 245.052 178.031 244.971 178.051 244.405C178.586 244.986 179.279 245.108 180.015 244.755C180.037 244.777 180.059 244.799 180.084 244.821C180.157 244.868 180.235 244.902 180.318 244.927C180.321 244.941 180.323 244.956 180.328 244.971C180.397 245.108 180.48 245.255 180.624 245.297C182.063 245.723 183.489 246.277 185.033 245.804C185.896 245.708 186.278 246.181 186.4 246.963C186.488 247.306 186.591 247.644 186.747 247.965C187.278 248.455 187.821 248.45 188.541 247.946C188.966 248.49 189.649 248.301 190.204 248.463C190.461 248.536 190.735 248.46 190.781 248.855C190.847 249.406 191.214 249.472 191.704 249.413C192.787 249.283 193.856 248.891 194.972 249.244C195.209 249.318 195.434 249.161 195.628 249.009C195.933 248.639 196.347 248.325 196.3 247.767C196.557 247.838 196.733 247.781 196.77 247.504C196.792 247.519 196.816 247.529 196.838 247.546C197.208 247.522 197.563 247.455 197.834 247.169C197.983 246.863 198.093 246.539 198.409 246.333C198.514 246.265 198.627 246.171 198.651 246.054C198.72 246.024 198.786 245.99 198.849 245.948C198.913 245.895 198.972 245.836 199.023 245.767C199.635 245.091 200.459 245.201 201.242 245.162C201.323 245.15 201.398 245.128 201.474 245.093C201.474 245.093 201.477 245.093 201.479 245.093C201.675 245.25 201.932 245.277 202.174 245.341C202.365 245.348 202.526 245.258 202.695 245.189C203.135 244.986 203.656 245.02 204.072 244.748C204.075 244.75 204.077 244.753 204.082 244.755C204.082 244.755 204.082 244.755 204.085 244.758C203.764 245.365 203.869 245.498 204.581 245.544C204.703 245.485 204.823 245.427 204.946 245.375C205.308 245.159 205.777 245.351 206.13 245.096C206.144 245.101 206.157 245.103 206.171 245.108C206.196 245.275 206.318 245.382 206.467 245.38C207.221 245.36 207.962 245.507 208.711 245.529C208.715 245.537 208.718 245.542 208.723 245.549C208.774 245.608 208.828 245.664 208.884 245.716C209.163 245.902 209.432 246.029 209.603 245.615C209.887 245.755 210.159 245.988 210.501 245.75C210.8 245.87 211.098 245.988 211.397 246.108C211.463 246.122 211.475 246.198 211.485 246.279C211.485 246.341 211.485 246.402 211.477 246.466C211.472 246.6 211.46 246.738 211.443 246.872C211.333 247.282 211.58 247.568 211.788 247.867C211.854 248.012 211.925 248.151 212.001 248.281C211.998 248.357 211.981 248.431 211.93 248.494C211.945 248.543 211.957 248.59 211.967 248.641C212.26 248.842 212.586 248.992 212.786 249.318C213.148 249.906 213.466 249.823 213.723 249.227C213.774 249.22 213.828 249.21 213.88 249.195C213.75 248.958 213.772 248.722 213.894 248.487C213.963 248.436 214.029 248.382 214.097 248.328C214.545 247.892 214.743 248.166 214.873 248.607C214.912 248.742 214.851 248.906 214.954 249.024C215.059 249.146 215.186 249.185 215.311 249.038C215.509 248.931 215.707 248.825 215.908 248.717C216.052 248.178 216.524 248.004 216.955 247.786C217.087 247.468 217.407 247.402 217.667 247.257C217.608 246.75 217.603 246.304 218.104 245.939C218.422 245.708 218.601 245.289 218.843 244.954C219.43 244.946 220.017 244.939 220.605 244.932C220.673 244.77 220.744 244.606 220.813 244.444C221.307 244.397 221.767 243.89 222.28 244.098C222.295 244.167 222.317 244.238 222.346 244.307C222.412 244.422 222.498 244.525 222.584 244.623C222.618 244.665 222.63 244.714 222.615 244.765C222.836 244.978 223.066 245.118 223.349 244.863C223.743 244.755 223.834 245.02 223.956 245.309C224.135 245.723 224.399 246.071 224.922 246.064L224.949 246.078C225.267 246.279 225.598 246.399 225.95 246.387C225.994 246.436 226.043 246.488 226.092 246.539C226.569 246.649 226.899 247.039 227.352 247.193C227.418 247.225 227.484 247.257 227.55 247.286C227.564 247.321 227.579 247.353 227.594 247.387C227.753 247.571 227.763 247.975 228.132 247.86C228.594 247.718 228.844 247.35 228.944 246.885C229.04 246.806 229.135 246.728 229.23 246.649C229.477 246.598 229.727 246.544 229.974 246.49C230.167 246.483 230.373 246.527 230.537 246.375C231.019 246.213 231.251 245.765 231.598 245.446C232.374 245.527 233.078 245.819 233.756 246.186C234.052 245.804 234.622 246.421 234.874 245.877C234.925 245.87 234.977 245.86 235.028 245.841C235.15 245.659 235.27 245.48 235.393 245.299C235.703 245.182 236.105 245.02 236.224 245.436C236.386 245.985 236.843 246.002 237.215 246.194C237.269 246.201 237.325 246.201 237.379 246.194C237.438 246.26 237.494 246.323 237.553 246.39C237.868 246.458 238.133 246.397 238.289 246.081C238.57 246.034 238.876 246.1 239.04 245.73C239.339 245.057 239.85 245.015 240.442 245.353C240.797 245.402 241.149 245.451 241.504 245.5C241.575 245.402 241.643 245.304 241.714 245.206C241.839 245.091 241.966 244.978 242.091 244.863C242.426 245 242.568 244.601 242.822 244.51C242.876 244.483 242.93 244.459 242.984 244.432C243.106 244.38 243.228 244.326 243.351 244.275C243.605 244.437 243.788 244.339 243.965 244.13C244.104 243.966 244.165 243.611 244.473 243.758C244.72 243.875 244.559 244.201 244.642 244.407C244.884 245.008 244.728 245.801 245.464 246.171C245.286 246.671 246.257 246.823 245.831 247.397C245.887 247.718 245.985 247.98 246.396 247.811C246.555 247.811 246.712 247.811 246.868 247.808C246.905 248.132 247.081 248.325 247.404 248.379C247.463 248.573 247.551 248.732 247.793 248.71C248.525 248.639 249.095 249.141 249.772 249.259C250.115 249.448 250.46 249.639 250.802 249.827C250.834 249.93 250.863 250.031 250.895 250.134C251.24 250.44 251.482 250.808 251.58 251.263C251.693 251.712 252.074 251.851 252.436 252.013C252.534 252.256 252.671 252.253 252.837 252.074C253.097 252.021 253.234 252.172 253.339 252.376C253.295 252.498 253.253 252.621 253.209 252.743C253.251 252.805 253.295 252.866 253.336 252.927C253.667 252.883 253.772 253.167 253.965 253.336C254.188 253.532 254.371 253.898 254.777 253.662C254.829 253.675 254.883 253.679 254.934 253.677C255.394 254.373 254.809 254.456 254.298 254.562C254.606 254.853 254.892 254.63 255.137 254.726C255.773 254.814 255.57 255.468 255.854 255.794C256.025 255.809 256.196 255.821 256.367 255.836C256.558 256.091 256.279 256.635 256.864 256.649C257.109 257.139 257.561 257.154 258.019 257.159C258.077 257.149 258.136 257.147 258.195 257.154C258.667 256.453 258.958 255.632 259.575 255.027C259.65 254.848 259.712 254.655 259.959 254.647C260.101 254.863 260.311 254.814 260.514 254.794C260.526 254.733 260.538 254.669 260.548 254.608C261.206 254.552 261.13 253.775 261.6 253.53C261.686 253.3 261.749 253.069 261.661 252.824C261.708 252.724 261.752 252.623 261.798 252.523C261.864 252.506 261.93 252.486 261.999 252.469C262.464 251.972 263.078 251.704 263.655 251.381C264.641 251.523 264.944 250.443 265.727 250.22C265.639 250.141 265.551 250.063 265.465 249.982C265.583 249.749 265.7 249.519 265.818 249.286C265.881 249.274 265.947 249.261 266.011 249.249C266.001 249.185 265.991 249.122 265.984 249.058C266.378 249.043 266.6 248.781 266.799 248.487C266.963 248.262 267.124 248.036 267.288 247.811C267.41 247.803 267.533 247.796 267.655 247.789C267.662 247.585 267.669 247.382 267.674 247.179C267.951 247.25 268.173 247.09 268.403 246.968C268.455 246.968 268.506 246.968 268.558 246.958C268.924 246.86 269.269 246.725 269.529 246.431C269.529 246.424 269.529 246.419 269.529 246.412C269.935 246.461 270.309 246.581 270.551 246.985C270.935 246.99 271.361 247.049 271.231 246.426C271.359 246.424 271.486 246.421 271.613 246.417C271.74 246.311 271.867 246.206 271.995 246.098L272 246.122Z" fill="#D0C834"/>
<path d="M272 0V240.455C271.993 240.534 271.985 240.615 271.978 240.695C271.919 240.691 271.861 240.686 271.804 240.678C271.506 240.933 271.207 241.188 270.909 241.443L270.527 241.458C270.664 242.077 270.236 242.024 269.852 242.024C269.605 241.622 269.231 241.507 268.822 241.46V241.482C268.565 241.779 268.223 241.918 267.858 242.019C267.807 242.028 267.756 242.031 267.704 242.031C267.477 242.156 267.257 242.32 266.98 242.251C266.975 242.455 266.97 242.658 266.965 242.862C266.843 242.871 266.721 242.879 266.601 242.889C266.439 243.114 266.28 243.342 266.119 243.57C266.021 243.717 265.918 243.859 265.789 243.964C265.659 244.07 265.507 244.141 265.312 244.151C265.322 244.214 265.331 244.278 265.341 244.339C265.275 244.354 265.211 244.366 265.148 244.378C265.033 244.611 264.918 244.844 264.803 245.077C264.891 245.155 264.979 245.234 265.067 245.312C264.287 245.542 263.998 246.628 263.01 246.496C262.437 246.829 261.823 247.101 261.366 247.603C261.3 247.623 261.234 247.642 261.168 247.662C261.124 247.762 261.077 247.863 261.033 247.963C261.124 248.206 261.062 248.439 260.982 248.669C260.517 248.919 260.6 249.693 259.942 249.759C259.932 249.821 259.92 249.884 259.91 249.946C259.707 249.968 259.497 250.019 259.352 249.806C259.108 249.818 259.049 250.012 258.973 250.193C258.364 250.806 258.083 251.629 257.618 252.335C257.559 252.33 257.501 252.332 257.442 252.342C257.214 252.342 256.984 252.34 256.784 252.278C256.581 252.215 256.405 252.092 256.28 251.847C255.698 251.837 255.969 251.291 255.776 251.039L255.262 251.002C254.974 250.678 255.169 250.024 254.533 249.943C254.286 249.853 254.002 250.078 253.692 249.789C254.201 249.676 254.785 249.588 254.315 248.897C254.264 248.899 254.21 248.894 254.159 248.885C253.758 249.122 253.567 248.76 253.344 248.566C253.149 248.397 253.039 248.118 252.711 248.164C252.667 248.103 252.623 248.044 252.581 247.983C252.623 247.86 252.664 247.735 252.703 247.613C252.596 247.412 252.459 247.26 252.199 247.319C252.124 247.402 252.053 247.449 251.989 247.449C251.918 247.449 251.852 247.39 251.798 247.26C251.434 247.106 251.05 246.971 250.932 246.522C250.829 246.067 250.585 245.702 250.235 245.4C250.203 245.297 250.171 245.197 250.14 245.094C249.795 244.91 249.45 244.724 249.105 244.538C248.425 244.427 247.847 243.932 247.118 244.013H247.069C246.864 244.013 246.783 243.864 246.725 243.685C246.402 243.633 246.223 243.442 246.181 243.119C246.025 243.121 245.866 243.124 245.709 243.126H245.707C245.298 243.3 245.198 243.038 245.139 242.719C245.526 242.188 244.738 242.026 244.738 241.617C244.738 241.58 244.743 241.541 244.758 241.499C244.016 241.137 244.166 240.343 243.916 239.745C243.831 239.539 243.99 239.213 243.74 239.095C243.429 238.951 243.373 239.309 243.236 239.475C243.121 239.615 243.001 239.703 242.862 239.703C242.788 239.703 242.71 239.679 242.622 239.625C242.5 239.679 242.38 239.735 242.258 239.789C242.204 239.816 242.15 239.843 242.096 239.87C241.844 239.965 241.707 240.365 241.37 240.23C241.247 240.348 241.122 240.463 240.998 240.578C240.929 240.678 240.858 240.776 240.79 240.874C240.435 240.83 240.08 240.786 239.728 240.74C239.131 240.409 238.62 240.455 238.329 241.134C238.17 241.504 237.864 241.443 237.583 241.492C237.428 241.808 237.167 241.874 236.851 241.808L236.675 241.617C236.621 241.624 236.567 241.624 236.511 241.617C236.137 241.428 235.679 241.418 235.513 240.872C235.386 240.458 234.987 240.622 234.679 240.744C234.559 240.926 234.439 241.107 234.322 241.288C234.27 241.308 234.221 241.32 234.168 241.328C233.923 241.874 233.343 241.262 233.052 241.649C232.712 241.467 232.365 241.306 232.005 241.181C231.645 241.056 231.274 240.967 230.887 240.933H230.885C230.713 241.095 230.571 241.286 230.412 241.46C230.253 241.634 230.075 241.788 229.835 241.872C229.674 242.028 229.468 241.984 229.272 241.994C229.025 242.051 228.778 242.107 228.531 242.161C228.436 242.242 228.34 242.32 228.247 242.401C228.15 242.869 227.905 243.239 227.445 243.386C227.076 243.504 227.063 243.102 226.902 242.918C226.885 242.884 226.87 242.852 226.855 242.818C226.789 242.788 226.723 242.759 226.655 242.727C226.202 242.575 225.867 242.193 225.388 242.087C225.336 242.036 225.29 241.984 225.243 241.935C225.224 241.935 225.204 241.938 225.185 241.938C224.854 241.938 224.544 241.823 224.24 241.636L224.213 241.624C223.69 241.639 223.421 241.293 223.237 240.882C223.11 240.593 223.017 240.33 222.626 240.441C222.344 240.698 222.112 240.561 221.889 240.35C221.904 240.299 221.889 240.249 221.858 240.208C221.77 240.11 221.684 240.009 221.615 239.894C221.586 239.826 221.564 239.755 221.547 239.686C221.464 239.654 221.381 239.639 221.3 239.639C220.881 239.639 220.497 240.004 220.082 240.049C220.016 240.213 219.947 240.377 219.879 240.539C219.291 240.553 218.704 240.568 218.117 240.583C217.88 240.921 217.706 241.342 217.391 241.575C216.892 241.945 216.904 242.394 216.967 242.898C216.708 243.048 216.39 243.119 216.263 243.437C216.048 243.55 215.825 243.648 215.637 243.79C215.448 243.93 215.294 244.109 215.226 244.381C215.03 244.489 214.832 244.599 214.634 244.709C214.511 244.856 214.384 244.817 214.276 244.697C214.174 244.579 214.232 244.415 214.193 244.28C214.059 243.839 213.856 243.567 213.413 244.011C213.347 244.065 213.281 244.116 213.212 244.17C213.095 244.405 213.075 244.641 213.207 244.878C213.156 244.893 213.105 244.905 213.053 244.913C212.801 245.51 212.483 245.596 212.116 245.013C211.913 244.69 211.585 244.543 211.289 244.347C211.28 244.298 211.267 244.249 211.253 244.2C211.304 244.136 211.319 244.062 211.321 243.986C211.243 243.856 211.17 243.719 211.101 243.575C210.891 243.278 210.639 242.996 210.746 242.585C210.761 242.45 210.773 242.315 210.776 242.178C210.783 242.117 210.783 242.055 210.781 241.994C210.768 241.913 210.756 241.837 210.69 241.823C210.389 241.707 210.091 241.592 209.79 241.477C209.45 241.717 209.178 241.489 208.892 241.352C208.809 241.556 208.701 241.632 208.579 241.632C208.457 241.632 208.315 241.553 208.173 241.46C208.114 241.409 208.06 241.355 208.009 241.296C208.004 241.291 207.999 241.284 207.997 241.276C207.246 241.262 206.504 241.124 205.751 241.154C205.602 241.159 205.477 241.053 205.453 240.887C205.438 240.882 205.423 240.877 205.411 240.872C205.061 241.129 204.589 240.945 204.229 241.166C204.107 241.217 203.987 241.281 203.867 241.34C203.153 241.301 203.048 241.168 203.361 240.558C203.361 240.558 203.354 240.551 203.351 240.546C202.938 240.825 202.417 240.796 201.979 241.004C201.81 241.075 201.651 241.168 201.46 241.163C201.218 241.105 200.961 241.078 200.763 240.926H200.758C200.685 240.963 200.609 240.987 200.528 240.999C199.745 241.046 198.921 240.945 198.317 241.629C198.265 241.698 198.209 241.756 198.143 241.813C198.082 241.855 198.016 241.889 197.947 241.918C197.925 242.036 197.813 242.131 197.71 242.2C197.397 242.411 197.289 242.734 197.145 243.043C196.876 243.332 196.523 243.403 196.154 243.433C196.132 243.415 196.108 243.406 196.083 243.391C196.051 243.668 195.875 243.727 195.618 243.658C195.672 244.217 195.264 244.535 194.96 244.91C194.769 245.064 194.544 245.224 194.307 245.15C193.189 244.812 192.122 245.219 191.041 245.359C190.552 245.422 190.185 245.361 190.112 244.812C190.06 244.415 189.786 244.496 189.529 244.425C188.972 244.271 188.292 244.467 187.859 243.928C187.144 244.442 186.601 244.454 186.065 243.969C185.906 243.651 185.799 243.315 185.706 242.972C185.574 242.193 185.187 241.725 184.326 241.83C182.787 242.32 181.354 241.781 179.91 241.374C179.766 241.333 179.683 241.186 179.612 241.051C179.607 241.036 179.605 241.021 179.6 241.007C179.517 240.985 179.438 240.95 179.365 240.904C179.34 240.884 179.318 240.862 179.296 240.84C178.562 241.203 177.87 241.088 177.33 240.512C177.315 241.078 176.931 241.164 176.419 241.088C176.094 240.931 175.793 241.632 175.465 241.303C175.397 241.296 175.331 241.279 175.267 241.252C175.108 241.159 174.969 241.026 174.776 240.999C174.763 241.271 174.78 241.607 174.347 241.004C174.274 240.904 174.157 240.838 174.044 240.921C173.645 241.222 173.288 241.07 172.931 240.926C172.828 240.948 172.723 240.96 172.615 240.958C172.54 240.982 172.461 240.997 172.381 241.004C172.019 240.943 171.656 241.124 171.294 241.11C171.086 241.149 170.886 241.205 170.702 241.32C170.72 241.355 170.737 241.389 170.742 241.426C170.751 241.514 170.742 241.595 170.707 241.676C170.663 241.749 170.602 241.808 170.531 241.855C170.524 241.857 170.516 241.857 170.507 241.857C170.512 242.342 170.154 242.337 169.726 242.242C169.487 242.136 169.249 242.011 168.988 242.198C168.359 242.644 167.686 242.384 167.023 242.337C167.004 242.408 166.96 242.465 166.891 242.504C166.475 242.55 166.101 242.494 165.856 242.104C165.773 241.999 165.727 241.881 165.744 241.747C165.746 241.742 165.749 241.739 165.753 241.737C165.629 241.639 165.563 241.507 165.538 241.352C165.506 241.088 165.511 240.825 165.563 240.568C165.479 240.323 165.267 240.296 164.812 240.465C164.183 240.695 163.425 241.061 162.874 240.232C162.874 240.23 162.879 240.23 162.881 240.225C161.935 239.725 162.008 240.757 161.609 241.078C161.575 241.122 161.543 241.139 161.509 241.134C161.509 241.144 161.504 241.154 161.502 241.163C161.267 241.649 160.939 242.038 160.501 242.374C159.821 242.898 159.156 242.903 158.437 242.521C158.314 242.455 158.18 242.425 158.045 242.391C157.935 242.575 157.854 242.803 157.615 242.786C157.6 242.795 157.59 242.805 157.573 242.815C157.297 242.849 157.133 242.744 157.098 242.487C156.812 242.739 156.374 242.555 156.078 242.781C155.533 242.984 154.916 243.011 154.481 243.484C154.383 243.587 154.219 243.589 154.082 243.501C154.219 243.849 154.146 244.128 153.823 244.334C153.661 244.373 153.5 244.393 153.346 244.376C153.155 244.474 152.993 244.606 152.952 244.878C152.759 245.131 152.587 245.403 152.37 245.628C152.181 245.819 151.949 246.128 151.702 245.677C151.401 245.817 151.2 245.523 150.961 245.398C150.628 245.302 150.305 245.341 150.014 245.52C149.138 246.059 148.316 245.885 147.514 245.356C147.112 245.06 146.496 245.216 146.158 244.792C146.266 245.231 145.823 245.329 145.628 245.579C145.559 245.631 145.481 245.667 145.395 245.687C145.248 245.689 145.109 245.707 144.974 245.733C144.94 245.758 144.906 245.782 144.872 245.807C144.881 245.849 144.889 245.893 144.896 245.934C144.791 246.91 144.223 246.554 143.724 246.397C143.741 246.415 143.759 246.427 143.773 246.444C143.847 246.567 143.859 246.699 143.859 246.836C143.859 246.929 143.837 247.017 143.8 247.101C143.536 247.716 143.174 248.191 142.406 248.115C142.056 248.081 141.828 248.407 141.518 248.5C141.518 248.524 141.51 248.544 141.508 248.566C141.483 248.664 141.442 248.75 141.381 248.828C140.877 249.206 140.356 249.514 139.685 249.5C138.893 249.483 138.592 249.191 138.668 248.417C138.631 248.358 138.597 248.294 138.565 248.228C138.563 248.223 138.56 248.218 138.56 248.213C138.35 248.218 138.122 248.194 138.068 248.51C137.645 248.929 137.234 249.367 136.571 249.343C136.557 249.36 136.542 249.377 136.53 249.399C136.52 249.409 136.51 249.421 136.5 249.431C136.52 249.507 136.517 249.588 136.495 249.671C136.356 249.943 136.158 250.139 135.835 250.164C135.431 249.96 134.91 249.919 134.668 249.49H134.661C134.521 249.497 134.384 249.492 134.247 249.463L134.115 249.323C133.824 249.512 133.518 249.362 133.401 249.13C133.188 248.711 132.841 248.642 132.486 248.539C132.562 248.701 132.527 248.85 132.405 248.988C132.378 249.01 132.349 249.029 132.32 249.049C132.327 249.11 132.302 249.171 132.244 249.233C131.801 249.264 131.343 249.208 131.099 249.691C131.089 249.764 131.057 249.826 131.013 249.882C130.972 249.955 130.913 250.009 130.837 250.046C130.727 250.134 130.61 250.22 130.551 250.333C130.509 250.411 130.46 250.48 130.406 250.548C129.668 251.009 129.362 251.81 128.912 252.494C128.799 252.668 128.731 252.864 128.537 252.974C128.454 253.004 128.369 253.016 128.281 253.011C128.237 253.001 128.193 252.984 128.153 252.964C128.31 253.3 128.141 253.486 127.774 253.572C127.307 253.68 126.837 253.722 126.37 253.565C126.346 253.501 126.324 253.445 126.306 253.388C126.302 253.396 126.299 253.403 126.297 253.41C125.761 253.861 125.083 254.109 124.638 254.707C124.379 255.052 124.029 255.145 123.503 254.824C123.077 254.562 122.422 254.675 121.852 254.645C121.717 254.932 121.509 254.986 121.235 254.839V254.851C121.081 255.006 120.917 255.001 120.751 254.888C120.751 254.888 120.743 254.893 120.741 254.895C120.746 254.903 120.753 254.91 120.758 254.917C120.741 255.412 120.521 255.547 120.068 255.332C119.909 255.256 119.767 255.167 119.643 255.057C119.547 255.204 119.449 255.346 119.251 255.368C118.676 255.297 118.466 254.91 118.366 254.43C118.202 254.418 118.065 254.342 117.933 254.251C117.837 254.214 117.742 254.185 117.642 254.16C117.289 253.952 116.636 254.07 116.756 253.347C116.795 253.288 116.846 253.244 116.903 253.21C116.443 253.058 116.083 252.832 116.152 252.31C115.902 252.553 115.658 252.467 115.376 252.156C114.987 251.727 114.64 251.244 114.087 250.997C113.82 250.931 113.659 251.102 113.493 251.266C113.429 251.323 113.356 251.362 113.277 251.389C112.622 251.435 112.196 250.933 111.741 250.624C111.257 250.298 110.914 250.169 110.395 250.458C110.151 250.595 109.852 250.725 109.552 250.578C109.759 251.029 109.312 251.154 109.109 251.399C109.045 251.433 108.979 251.46 108.913 251.48C108.957 251.747 108.73 251.913 108.485 252.053C108.16 252.239 107.815 252.394 107.538 252.656C107.457 252.707 107.372 252.737 107.279 252.749C106.545 252.715 106.017 253.212 105.407 253.496C104.93 253.719 104.507 253.758 104.074 253.44C104.033 253.406 104.001 253.361 103.976 253.317C103.372 253.815 102.685 253.952 102.051 253.714C102.046 253.727 102.041 253.736 102.034 253.749C101.98 253.856 101.902 253.945 101.806 254.016C101.85 254.141 101.848 254.28 101.841 254.422C101.628 256.074 100.434 256.772 99.0592 257.294C98.9198 257.292 98.795 257.314 98.68 257.353C98.4354 257.549 98.2005 257.772 97.9168 257.882C97.7847 258 97.6501 258.115 97.5009 258.206C97.3615 258.277 97.2196 258.35 97.0801 258.426C96.789 258.5 96.63 258.767 96.3854 258.912C96.3413 258.926 96.2973 258.934 96.2533 258.936C96.3389 259.147 96.312 259.34 96.0404 259.402C95.7444 259.47 95.7077 259.218 95.7249 259.005C95.7542 258.63 95.5194 258.402 95.2992 258.162C95.1964 257.865 95.0154 257.569 95.2111 257.267C94.9347 257.206 94.761 256.973 94.5311 256.836C94.4797 256.807 94.4332 256.772 94.3867 256.738C94.1935 256.633 94.0589 256.488 93.9708 256.312C93.8803 256.187 93.7996 256.052 93.7238 255.915C93.6846 255.836 93.6651 255.755 93.6553 255.672C93.6161 255.66 93.5794 255.645 93.5403 255.635C93.4571 255.606 93.3837 255.564 93.3177 255.51C93.2859 255.476 93.259 255.439 93.232 255.4C92.5911 255.496 92.1214 255.27 91.911 254.528C91.8107 254.17 91.5612 253.996 91.1722 254.033C90.1962 254.119 89.2201 254.202 88.3932 254.819C88.3492 254.883 88.3027 254.949 88.2562 255.013C88.3272 255.51 87.8648 255.596 87.5957 255.738C87.3878 255.846 87.2483 255.501 87.1407 255.29C87.0893 255.187 86.9548 255.02 86.9499 255.02C86.2845 255.464 85.4601 254.932 84.802 255.373C84.7433 255.434 84.687 255.498 84.6308 255.559C84.5818 255.939 84.1635 256.184 84.2442 256.611C84.0754 256.689 83.9042 256.765 83.7354 256.841C83.5764 256.941 83.4614 256.983 83.3782 256.983C83.0798 256.983 83.1605 256.466 82.9893 256.29C82.5734 256.29 82.1575 256.282 81.7416 256.277V256.282C81.7465 256.469 81.7514 256.655 81.7563 256.841C81.6903 257.015 81.6267 257.189 81.5631 257.363C81.1545 257.804 80.6702 257.831 80.1735 257.569C79.9729 257.466 79.7821 257.385 79.5693 257.37C79.5693 257.373 79.5693 257.378 79.5644 257.38C79.5057 257.439 79.4421 257.485 79.3712 257.527C79.3222 257.537 79.2708 257.544 79.2195 257.547C79.1705 257.772 79.0678 257.963 78.8819 258.103C78.8109 258.277 78.7424 258.453 78.6715 258.627C78.1969 259.747 77.6709 259.865 76.827 259.068C76.575 258.831 76.2619 258.654 75.9756 258.451H75.9732C75.9047 258.747 75.8362 259.041 75.7653 259.338C75.7114 259.397 75.6576 259.458 75.6038 259.519C75.2295 259.522 75.1194 259.176 74.8919 258.985C74.4027 258.877 73.8889 258.877 73.4241 258.659C72.5973 259.157 72.4064 258.507 72.1789 257.924C71.2591 258.642 70.5057 258.093 69.7791 257.574C69.3901 257.297 69.0403 257.071 68.5706 257.36C68.2746 257.091 67.9786 256.956 67.6826 256.956C67.3866 256.956 67.0808 257.096 66.7799 257.373L66.7872 257.38C66.6869 257.618 66.4961 257.716 66.2539 257.738C65.8478 257.914 65.4393 258.081 65.0406 258.272C64.8008 258.387 64.6222 258.321 64.5219 258.108C64.1746 257.368 63.7489 257.407 63.3012 257.637C63.1936 257.711 63.0933 257.809 63.0003 257.941C62.9392 258.044 62.8878 258.154 62.8364 258.262C62.7655 258.387 62.697 258.51 62.6285 258.635C62.1123 258.956 61.6548 259.335 61.3026 259.833C61.2952 259.855 61.2879 259.877 61.283 259.902C61.2732 259.933 61.261 259.963 61.2487 259.992C61.2536 260.024 61.2487 260.058 61.2243 260.095C61.1998 260.147 61.1802 260.198 61.1656 260.252C61.1044 260.296 61.0457 260.338 60.9845 260.382C60.916 260.453 60.8427 260.521 60.7668 260.588C60.7277 260.6 60.6861 260.61 60.6469 260.622C60.3142 260.514 60.0036 260.531 59.7443 260.798C59.688 260.97 59.6268 261.048 59.5681 261.048C59.5021 261.048 59.436 260.96 59.37 260.806C59.0544 260.838 59.0324 261.173 58.8318 261.323C58.4183 261.573 58.2006 261.406 58.1077 260.98C57.0435 260.798 56.0478 261.004 55.0987 261.477C55.0987 261.489 55.1085 261.502 55.1109 261.516C55.0375 261.582 54.9617 261.651 54.8883 261.717C54.8222 261.832 54.7562 261.948 54.6901 262.06C54.355 262.68 53.8853 262.406 53.4327 262.249C53.4327 262.212 53.4327 262.175 53.4327 262.139C53.4278 262.141 53.4254 262.141 53.4229 262.144C52.1631 262.541 50.8983 262.911 49.5553 262.866C49.2226 262.854 48.9828 262.734 48.8605 262.416C48.4202 261.95 47.9701 261.497 47.2606 261.494C47.2117 261.509 47.1652 261.521 47.1163 261.533C47.0992 261.778 46.9377 261.93 46.7689 262.077C46.7665 262.193 46.764 262.31 46.7616 262.425C45.947 263.17 44.944 262.979 43.9801 263.004C43.6401 263.013 43.5716 262.688 43.3465 262.568C43.4003 262.46 43.4566 262.352 43.5129 262.244C43.5031 261.987 43.437 261.769 43.1459 261.703C43.0358 261.764 42.9257 261.832 42.8132 261.832C42.7398 261.832 42.664 261.803 42.5881 261.72C42.4193 261.085 41.502 260.744 41.8738 259.897C41.8127 259.84 41.7539 259.781 41.6952 259.723C41.3846 259.664 41.1888 259.502 41.1717 259.166C41.0518 258.956 40.8757 258.833 40.6286 258.818C40.2886 259.536 39.814 259.732 39.1486 259.203C38.4783 258.88 37.9597 259.397 37.3701 259.517C37.1964 259.49 37.0227 259.46 36.8466 259.434C36.5286 259.688 36.2057 259.938 35.8901 260.2C35.6137 260.428 35.3348 260.517 35.0265 260.262C34.9629 260.267 34.9018 260.269 34.8382 260.272L34.8504 260.249C34.1875 260.553 33.5857 260.823 33.116 259.887C32.93 259.519 32.3429 259.772 31.9442 259.688C31.3497 260.029 31.4035 259.262 31.061 259.169C30.8409 258.995 30.6378 258.72 30.3883 258.738C30.3834 258.845 30.3736 258.953 30.3712 259.063C30.3027 259.478 30.0654 259.799 29.7841 260.093C29.6446 260.252 29.4318 260.333 29.3193 260.521C29.2679 260.607 29.2116 260.671 29.1554 260.722C28.9596 261.073 28.6196 261.068 28.2575 260.803C27.9689 260.59 27.69 260.502 27.3964 260.519C27.2912 260.566 27.1885 260.639 27.0858 260.757C27.0148 260.803 26.9365 260.835 26.8534 260.855C26.824 260.852 26.7995 260.847 26.7751 260.842C26.6307 260.999 26.4497 261.097 26.2907 261.007C25.6424 260.634 25.1996 260.904 24.7666 261.23C24.7373 261.364 24.7153 261.497 24.7471 261.634C24.5881 262.085 24.456 262.56 23.8933 262.68C23.9471 262.778 23.9349 262.866 23.8272 262.947L23.8346 262.955C23.7783 263.129 23.6951 263.281 23.5215 263.359C23.5215 263.722 23.2254 263.918 22.9441 264.121C22.7215 264.158 22.5111 264.241 22.2958 264.307C22.3056 264.346 22.2861 264.386 22.2322 264.425C22.2273 264.476 22.22 264.525 22.2127 264.574C22.1001 264.582 21.9901 264.592 21.8775 264.599C21.4421 264.905 21.2439 264.56 21.0066 264.293C20.4929 263.709 20.0941 262.96 19.1596 262.96C19.1058 262.967 19.0496 262.972 18.9957 262.977C18.9395 263.021 18.8857 263.028 18.8343 262.996C18.7976 263.036 18.7609 263.082 18.7291 263.136C18.2936 263.325 17.7579 262.808 17.3714 263.335C17.3543 263.386 17.3396 263.44 17.3274 263.494C17.2662 263.535 17.205 263.575 17.1439 263.614C16.8136 264.001 16.4883 264.393 16.0846 264.704C15.8718 264.792 15.6345 264.78 15.5073 264.616C14.9397 263.891 14.0077 263.543 13.5747 262.675C13.2664 262.063 12.8946 262.648 12.5497 262.675C12.5497 262.697 12.5423 262.717 12.5399 262.739C12.2219 263.259 11.7473 263.477 11.1602 263.624C10.3406 263.829 9.57249 264.207 8.73584 264.398C8.21477 264.516 8.17319 265.305 7.60808 265.476C7.39036 265.633 7.21422 265.834 7.0332 266.025C6.42895 266.236 6.25771 265.675 6.00329 265.378C5.80025 265.143 5.61188 265.011 5.39905 264.998C5.24493 265.04 5.0957 265.106 4.94159 265.182C4.95137 265.498 4.78502 265.628 4.46944 265.493C4.23215 265.395 4.02177 265.346 3.78936 265.466C3.73799 265.528 3.68906 265.591 3.64014 265.653C3.19491 265.356 2.96495 264.704 2.302 264.761C2.302 264.766 2.302 264.768 2.302 264.773C2.09161 265.258 1.78093 265.211 1.48003 264.888C1.22806 264.621 1.18158 264.261 1.0984 263.903C0.954068 263.281 0.792611 262.624 0 262.465V0H272Z" fill="#272727"/>
<path d="M272 219.932V240.454C271.993 240.533 271.985 240.614 271.978 240.694C271.919 240.69 271.861 240.685 271.804 240.677C271.506 240.932 271.207 241.187 270.909 241.442L270.527 241.456C270.664 242.076 270.236 242.023 269.852 242.023C269.605 241.621 269.231 241.506 268.822 241.459V241.481C268.565 241.777 268.223 241.917 267.858 242.018C267.807 242.027 267.756 242.03 267.704 242.03C267.477 242.155 267.257 242.319 266.98 242.25C266.975 242.454 266.97 242.657 266.965 242.861C266.843 242.87 266.721 242.878 266.601 242.888C266.44 243.113 266.28 243.341 266.119 243.569C266.021 243.716 265.918 243.858 265.789 243.963C265.659 244.069 265.507 244.14 265.312 244.149C265.322 244.213 265.331 244.277 265.341 244.338C265.275 244.353 265.211 244.365 265.148 244.377C265.033 244.61 264.918 244.843 264.803 245.076C264.891 245.154 264.979 245.233 265.067 245.311C264.287 245.541 263.998 246.627 263.01 246.494C262.437 246.828 261.823 247.1 261.366 247.602C261.3 247.622 261.234 247.641 261.168 247.661C261.124 247.761 261.077 247.862 261.033 247.962C261.124 248.205 261.062 248.438 260.982 248.668C260.517 248.918 260.6 249.692 259.942 249.758C259.932 249.82 259.92 249.883 259.91 249.945C259.707 249.967 259.497 250.018 259.352 249.805C259.108 249.817 259.049 250.011 258.973 250.192C258.364 250.805 258.083 251.628 257.618 252.334C257.559 252.329 257.501 252.331 257.442 252.341C257.214 252.341 256.984 252.339 256.784 252.277C256.581 252.214 256.405 252.091 256.28 251.846C255.698 251.836 255.969 251.29 255.776 251.037L255.262 251.001C254.974 250.677 255.169 250.023 254.533 249.942C254.286 249.851 254.002 250.077 253.692 249.788C254.201 249.675 254.785 249.587 254.315 248.896C254.264 248.898 254.21 248.893 254.159 248.884C253.758 249.121 253.567 248.759 253.344 248.565C253.149 248.396 253.039 248.117 252.711 248.163C252.667 248.102 252.623 248.043 252.581 247.982C252.623 247.859 252.664 247.734 252.703 247.612C252.596 247.411 252.459 247.259 252.199 247.318C252.124 247.401 252.053 247.448 251.989 247.448C251.918 247.448 251.852 247.389 251.798 247.259C251.434 247.105 251.05 246.97 250.932 246.521C250.829 246.066 250.585 245.701 250.235 245.399C250.203 245.296 250.171 245.196 250.14 245.093C249.795 244.909 249.45 244.723 249.105 244.537C248.425 244.426 247.847 243.931 247.118 244.012H247.069C246.864 244.012 246.783 243.863 246.725 243.684C246.402 243.632 246.223 243.441 246.181 243.118C246.025 243.12 245.866 243.123 245.709 243.125H245.707C245.298 243.299 245.198 243.037 245.139 242.718C245.526 242.187 244.738 242.025 244.738 241.616C244.738 241.579 244.743 241.54 244.758 241.498C244.016 241.135 244.166 240.342 243.916 239.744C243.831 239.538 243.99 239.212 243.74 239.094C243.429 238.95 243.373 239.308 243.236 239.474C243.121 239.614 243.001 239.702 242.862 239.702C242.788 239.702 242.71 239.678 242.622 239.624C242.5 239.678 242.38 239.734 242.258 239.788C242.204 239.815 242.15 239.842 242.096 239.869C241.844 239.964 241.707 240.364 241.37 240.229C241.247 240.346 241.122 240.462 240.998 240.577C240.929 240.677 240.858 240.775 240.79 240.873C240.435 240.829 240.08 240.785 239.728 240.739C239.131 240.408 238.62 240.454 238.329 241.133C238.17 241.503 237.864 241.442 237.583 241.491C237.428 241.807 237.167 241.873 236.851 241.807L236.675 241.616C236.621 241.623 236.567 241.623 236.511 241.616C236.137 241.427 235.679 241.417 235.513 240.871C235.386 240.457 234.987 240.621 234.679 240.743C234.559 240.925 234.439 241.106 234.322 241.287C234.27 241.307 234.221 241.319 234.168 241.327C233.923 241.873 233.343 241.26 233.052 241.648C232.712 241.466 232.365 241.305 232.005 241.18C231.645 241.055 231.274 240.966 230.887 240.932H230.885C230.713 241.094 230.571 241.285 230.412 241.459C230.253 241.633 230.075 241.787 229.835 241.871C229.674 242.027 229.468 241.983 229.272 241.993C229.025 242.049 228.778 242.106 228.531 242.16C228.436 242.241 228.34 242.319 228.247 242.4C228.15 242.868 227.905 243.238 227.445 243.385C227.076 243.503 227.063 243.101 226.902 242.917C226.885 242.883 226.87 242.851 226.855 242.816C226.789 242.787 226.723 242.758 226.655 242.726C226.202 242.574 225.867 242.192 225.388 242.086C225.336 242.035 225.29 241.983 225.243 241.934C225.224 241.934 225.204 241.937 225.185 241.937C224.854 241.937 224.544 241.822 224.24 241.635L224.213 241.623C223.69 241.638 223.421 241.292 223.237 240.881C223.11 240.592 223.017 240.329 222.626 240.44C222.344 240.697 222.112 240.56 221.889 240.349C221.904 240.297 221.889 240.248 221.858 240.207C221.77 240.109 221.684 240.008 221.615 239.893C221.586 239.825 221.564 239.753 221.547 239.685C221.464 239.653 221.381 239.638 221.3 239.638C220.882 239.638 220.497 240.003 220.082 240.048C220.016 240.212 219.947 240.376 219.879 240.538C219.291 240.552 218.704 240.567 218.117 240.582C217.88 240.92 217.706 241.341 217.391 241.574C216.892 241.944 216.904 242.393 216.967 242.897C216.708 243.047 216.39 243.118 216.263 243.436C216.048 243.549 215.825 243.647 215.637 243.789C215.448 243.929 215.294 244.108 215.226 244.38C215.03 244.488 214.832 244.598 214.634 244.708C214.511 244.855 214.384 244.816 214.276 244.696C214.174 244.578 214.232 244.414 214.193 244.279C214.059 243.838 213.856 243.566 213.413 244.01C213.347 244.064 213.281 244.115 213.212 244.169C213.095 244.404 213.075 244.64 213.207 244.877C213.156 244.892 213.105 244.904 213.053 244.912C212.801 245.509 212.483 245.595 212.116 245.012C211.913 244.689 211.585 244.542 211.289 244.345C211.28 244.296 211.267 244.247 211.253 244.198C211.304 244.135 211.319 244.061 211.321 243.985C211.243 243.855 211.17 243.718 211.101 243.574C210.891 243.277 210.639 242.995 210.746 242.584C210.761 242.449 210.773 242.314 210.776 242.177C210.783 242.116 210.783 242.054 210.781 241.993C210.768 241.912 210.756 241.836 210.69 241.822C210.389 241.706 210.091 241.591 209.79 241.476C209.45 241.716 209.178 241.488 208.892 241.351C208.809 241.555 208.701 241.63 208.579 241.63C208.457 241.63 208.315 241.552 208.173 241.459C208.114 241.407 208.06 241.354 208.009 241.295C208.004 241.29 207.999 241.283 207.997 241.275C207.246 241.26 206.504 241.123 205.751 241.153C205.602 241.158 205.477 241.052 205.453 240.886C205.438 240.881 205.423 240.876 205.411 240.871C205.061 241.128 204.589 240.944 204.229 241.165C204.107 241.216 203.987 241.28 203.867 241.339C203.153 241.3 203.048 241.167 203.361 240.557C203.361 240.557 203.354 240.55 203.351 240.545C202.938 240.824 202.417 240.795 201.979 241.003C201.81 241.074 201.651 241.167 201.46 241.162C201.218 241.104 200.961 241.077 200.763 240.925H200.758C200.685 240.962 200.609 240.986 200.528 240.998C199.745 241.045 198.921 240.944 198.317 241.628C198.265 241.697 198.209 241.755 198.143 241.812C198.082 241.853 198.016 241.888 197.947 241.917C197.925 242.035 197.813 242.13 197.71 242.199C197.397 242.41 197.289 242.733 197.145 243.042C196.876 243.331 196.523 243.402 196.154 243.431C196.132 243.414 196.108 243.405 196.083 243.39C196.051 243.667 195.875 243.726 195.618 243.657C195.672 244.216 195.264 244.534 194.96 244.909C194.769 245.063 194.544 245.223 194.307 245.149C193.189 244.811 192.122 245.218 191.041 245.357C190.552 245.421 190.185 245.36 190.112 244.811C190.06 244.414 189.786 244.495 189.529 244.424C188.972 244.27 188.292 244.466 187.859 243.926C187.144 244.441 186.601 244.453 186.065 243.968C185.906 243.65 185.799 243.314 185.706 242.971C185.574 242.192 185.187 241.724 184.326 241.829C182.787 242.319 181.354 241.78 179.91 241.373C179.766 241.332 179.683 241.184 179.612 241.05C179.607 241.035 179.605 241.02 179.6 241.006C179.517 240.984 179.438 240.949 179.365 240.903C179.34 240.883 179.318 240.861 179.296 240.839C178.562 241.202 177.87 241.086 177.33 240.511C177.315 241.077 176.931 241.162 176.419 241.086C176.094 240.93 175.793 241.63 175.465 241.302C175.397 241.295 175.331 241.278 175.267 241.251C175.108 241.158 174.969 241.025 174.776 240.998C174.763 241.27 174.78 241.606 174.347 241.003C174.274 240.903 174.157 240.837 174.044 240.92C173.645 241.221 173.288 241.069 172.931 240.925C172.828 240.947 172.723 240.959 172.615 240.957C172.54 240.981 172.461 240.996 172.381 241.003C172.019 240.942 171.656 241.123 171.294 241.109C171.086 241.148 170.886 241.204 170.702 241.319C170.72 241.354 170.737 241.388 170.742 241.425C170.751 241.513 170.742 241.594 170.707 241.675C170.663 241.748 170.602 241.807 170.531 241.853C170.524 241.856 170.516 241.856 170.507 241.856C170.512 242.341 170.154 242.336 169.726 242.241C169.487 242.135 169.249 242.01 168.988 242.197C168.359 242.642 167.686 242.383 167.023 242.336C167.004 242.407 166.96 242.464 166.891 242.503C166.475 242.549 166.101 242.493 165.856 242.103C165.773 241.998 165.727 241.88 165.744 241.746C165.746 241.741 165.749 241.738 165.753 241.736C165.629 241.638 165.563 241.506 165.538 241.351C165.506 241.086 165.511 240.824 165.563 240.567C165.479 240.322 165.267 240.295 164.812 240.464C164.183 240.694 163.425 241.06 162.874 240.231C162.874 240.229 162.879 240.229 162.881 240.224C161.935 239.724 162.008 240.756 161.609 241.077C161.575 241.121 161.543 241.138 161.509 241.133C161.509 241.143 161.504 241.153 161.502 241.162C161.267 241.648 160.939 242.037 160.501 242.373C159.821 242.897 159.156 242.902 158.437 242.52C158.314 242.454 158.18 242.424 158.045 242.39C157.935 242.574 157.854 242.802 157.615 242.785C157.6 242.794 157.59 242.804 157.573 242.814C157.297 242.848 157.133 242.743 157.098 242.486C156.812 242.738 156.374 242.554 156.078 242.78C155.533 242.983 154.916 243.01 154.481 243.483C154.383 243.586 154.219 243.588 154.082 243.5C154.219 243.848 154.146 244.127 153.823 244.333C153.661 244.372 153.5 244.392 153.346 244.375C153.155 244.473 152.993 244.605 152.952 244.877C152.759 245.13 152.587 245.402 152.37 245.627C152.181 245.818 151.949 246.127 151.702 245.676C151.401 245.816 151.2 245.522 150.961 245.397C150.628 245.301 150.305 245.34 150.014 245.519C149.138 246.058 148.316 245.884 147.514 245.355C147.112 245.059 146.496 245.215 146.158 244.791C146.266 245.23 145.823 245.328 145.628 245.578C145.559 245.629 145.481 245.666 145.395 245.686C145.248 245.688 145.109 245.705 144.974 245.732C144.94 245.757 144.906 245.781 144.872 245.806C144.881 245.848 144.889 245.892 144.896 245.933C144.791 246.909 144.223 246.553 143.724 246.396C143.741 246.414 143.759 246.426 143.773 246.443C143.847 246.566 143.859 246.698 143.859 246.835C143.859 246.928 143.837 247.016 143.8 247.1C143.536 247.715 143.174 248.19 142.406 248.114C142.056 248.08 141.828 248.406 141.518 248.499C141.518 248.523 141.51 248.543 141.508 248.565C141.483 248.663 141.442 248.749 141.381 248.827C140.877 249.205 140.356 249.513 139.685 249.499C138.893 249.481 138.592 249.19 138.668 248.416C138.631 248.357 138.597 248.293 138.565 248.227C138.563 248.222 138.56 248.217 138.56 248.212C138.35 248.217 138.122 248.193 138.068 248.509C137.645 248.928 137.234 249.366 136.571 249.342C136.557 249.359 136.542 249.376 136.53 249.398C136.52 249.408 136.51 249.42 136.5 249.43C136.52 249.506 136.517 249.587 136.495 249.67C136.356 249.942 136.158 250.138 135.835 250.163C135.431 249.959 134.91 249.918 134.668 249.489H134.661C134.521 249.496 134.384 249.491 134.247 249.462L134.115 249.322C133.824 249.511 133.518 249.361 133.401 249.129C133.188 248.71 132.841 248.641 132.486 248.538C132.562 248.7 132.527 248.849 132.405 248.986C132.378 249.009 132.349 249.028 132.32 249.048C132.327 249.109 132.302 249.17 132.244 249.232C131.801 249.263 131.343 249.207 131.099 249.69C131.089 249.763 131.057 249.825 131.013 249.881C130.972 249.954 130.913 250.008 130.837 250.045C130.727 250.133 130.61 250.219 130.551 250.332C130.509 250.41 130.46 250.479 130.406 250.547C129.668 251.008 129.362 251.809 128.912 252.493C128.799 252.667 128.731 252.863 128.537 252.973C128.454 253.003 128.369 253.015 128.281 253.01C128.237 253 128.193 252.983 128.153 252.963C128.31 253.299 128.141 253.485 127.774 253.571C127.307 253.679 126.837 253.721 126.37 253.564C126.346 253.5 126.324 253.444 126.306 253.387C126.302 253.395 126.299 253.402 126.297 253.409C125.761 253.86 125.083 254.108 124.638 254.706C124.379 255.051 124.029 255.144 123.503 254.823C123.077 254.561 122.422 254.674 121.852 254.644C121.717 254.931 121.509 254.985 121.235 254.838V254.85C121.081 255.005 120.917 255 120.751 254.887C120.751 254.887 120.743 254.892 120.741 254.894C120.746 254.902 120.753 254.909 120.758 254.916C120.741 255.411 120.521 255.546 120.068 255.331C119.909 255.255 119.767 255.166 119.643 255.056C119.547 255.203 119.449 255.345 119.251 255.367C118.676 255.296 118.466 254.909 118.366 254.429C118.202 254.417 118.065 254.341 117.933 254.25C117.837 254.213 117.742 254.184 117.642 254.159C117.289 253.951 116.636 254.069 116.756 253.346C116.795 253.287 116.846 253.243 116.903 253.208C116.443 253.057 116.083 252.831 116.152 252.309C115.902 252.552 115.658 252.466 115.376 252.155C114.987 251.726 114.64 251.243 114.087 250.996C113.82 250.93 113.659 251.101 113.493 251.265C113.429 251.322 113.356 251.361 113.277 251.388C112.622 251.434 112.196 250.932 111.741 250.623C111.257 250.297 110.914 250.168 110.395 250.457C110.151 250.594 109.852 250.724 109.552 250.577C109.759 251.028 109.312 251.153 109.109 251.398C109.045 251.432 108.979 251.459 108.913 251.479C108.957 251.746 108.73 251.912 108.485 252.052C108.16 252.238 107.815 252.393 107.538 252.655C107.457 252.706 107.372 252.736 107.279 252.748C106.545 252.714 106.017 253.211 105.407 253.495C104.93 253.718 104.507 253.757 104.074 253.439C104.033 253.405 104.001 253.36 103.976 253.316C103.372 253.814 102.685 253.951 102.051 253.713C102.046 253.726 102.041 253.735 102.034 253.748C101.98 253.855 101.902 253.944 101.806 254.015C101.85 254.14 101.848 254.279 101.841 254.421C101.628 256.073 100.434 256.771 99.0592 257.293C98.9198 257.291 98.795 257.313 98.68 257.352C98.4354 257.548 98.2005 257.771 97.9168 257.881C97.7847 257.999 97.6501 258.114 97.5009 258.205C97.3615 258.276 97.2196 258.349 97.0801 258.425C96.789 258.499 96.63 258.766 96.3854 258.911C96.3413 258.925 96.2973 258.933 96.2533 258.935C96.3389 259.146 96.312 259.339 96.0404 259.401C95.7444 259.469 95.7077 259.217 95.7249 259.004C95.7542 258.629 95.5194 258.401 95.2992 258.161C95.1965 257.864 95.0154 257.568 95.2111 257.266C94.9347 257.205 94.761 256.972 94.5311 256.835C94.4797 256.806 94.4332 256.771 94.3867 256.737C94.1935 256.632 94.0589 256.487 93.9708 256.311C93.8803 256.186 93.7996 256.051 93.7238 255.914C93.6846 255.835 93.665 255.754 93.6553 255.671C93.6161 255.659 93.5794 255.644 93.5403 255.634C93.4571 255.605 93.3837 255.563 93.3177 255.509C93.2859 255.475 93.259 255.438 93.232 255.399C92.5911 255.495 92.1214 255.269 91.911 254.527C91.8107 254.169 91.5612 253.995 91.1722 254.032C90.1962 254.118 89.2201 254.201 88.3932 254.818C88.3492 254.882 88.3027 254.948 88.2562 255.012C88.3272 255.509 87.8648 255.595 87.5957 255.737C87.3878 255.845 87.2483 255.5 87.1407 255.289C87.0893 255.186 86.9548 255.019 86.9499 255.019C86.2845 255.463 85.4601 254.931 84.802 255.372C84.7433 255.433 84.687 255.497 84.6308 255.558C84.5818 255.938 84.1635 256.183 84.2442 256.61C84.0754 256.688 83.9042 256.764 83.7354 256.84C83.5764 256.94 83.4614 256.982 83.3782 256.982C83.0798 256.982 83.1605 256.465 82.9893 256.289C82.5734 256.289 82.1575 256.281 81.7416 256.276V256.281C81.7465 256.467 81.7514 256.654 81.7563 256.84C81.6903 257.014 81.6267 257.188 81.5631 257.362C81.1545 257.803 80.6702 257.83 80.1735 257.568C79.9729 257.465 79.7821 257.384 79.5693 257.369C79.5693 257.372 79.5693 257.377 79.5644 257.379C79.5057 257.438 79.4421 257.484 79.3712 257.526C79.3222 257.536 79.2708 257.543 79.2195 257.546C79.1705 257.771 79.0678 257.962 78.8819 258.102C78.8109 258.276 78.7424 258.452 78.6715 258.626C78.1969 259.746 77.6709 259.864 76.827 259.067C76.575 258.83 76.2619 258.653 75.9756 258.45H75.9732C75.9047 258.746 75.8362 259.04 75.7653 259.337C75.7114 259.396 75.6576 259.457 75.6038 259.518C75.2295 259.521 75.1194 259.175 74.8919 258.984C74.4027 258.876 73.8889 258.876 73.4241 258.658C72.5973 259.156 72.4064 258.506 72.1789 257.923C71.2591 258.641 70.5056 258.092 69.7791 257.573C69.3901 257.296 69.0403 257.07 68.5706 257.359C68.2746 257.09 67.9786 256.955 67.6826 256.955C67.3866 256.955 67.0808 257.095 66.7799 257.372L66.7872 257.379C66.6869 257.617 66.4961 257.715 66.2539 257.737C65.8478 257.913 65.4393 258.08 65.0406 258.271C64.8008 258.386 64.6222 258.32 64.5219 258.107C64.1746 257.367 63.7489 257.406 63.3012 257.636C63.1936 257.71 63.0933 257.808 63.0003 257.94C62.9392 258.043 62.8878 258.153 62.8364 258.261C62.7655 258.386 62.697 258.509 62.6285 258.634C62.1123 258.955 61.6548 259.334 61.3026 259.832C61.2952 259.854 61.2879 259.876 61.283 259.9C61.2732 259.932 61.261 259.962 61.2487 259.991C61.2536 260.023 61.2487 260.057 61.2243 260.094C61.1998 260.145 61.1802 260.197 61.1656 260.251C61.1044 260.295 61.0457 260.337 60.9845 260.381C60.916 260.452 60.8427 260.52 60.7668 260.587C60.7277 260.599 60.6861 260.609 60.6469 260.621C60.3142 260.513 60.0036 260.53 59.7443 260.797C59.688 260.969 59.6268 261.047 59.5681 261.047C59.5021 261.047 59.436 260.959 59.37 260.805C59.0544 260.837 59.0324 261.172 58.8318 261.322C58.4183 261.572 58.2006 261.405 58.1077 260.979C57.0435 260.797 56.0478 261.003 55.0987 261.476C55.0987 261.488 55.1085 261.501 55.1109 261.515C55.0375 261.581 54.9617 261.65 54.8883 261.716C54.8222 261.831 54.7562 261.947 54.6901 262.059C54.355 262.679 53.8853 262.405 53.4327 262.248C53.4327 262.211 53.4327 262.174 53.4327 262.138C53.4278 262.14 53.4254 262.14 53.4229 262.143C52.1631 262.54 50.8983 262.91 49.5553 262.865C49.2226 262.853 48.9828 262.733 48.8605 262.415C48.4202 261.949 47.9701 261.496 47.2606 261.493C47.2117 261.508 47.1652 261.52 47.1163 261.532C47.0992 261.777 46.9377 261.929 46.7689 262.076C46.7665 262.192 46.764 262.309 46.7616 262.424C45.947 263.169 44.944 262.978 43.9801 263.003C43.6401 263.012 43.5716 262.687 43.3465 262.566C43.4003 262.459 43.4566 262.351 43.5129 262.243C43.5031 261.986 43.437 261.768 43.1459 261.701C43.0358 261.763 42.9257 261.831 42.8132 261.831C42.7398 261.831 42.664 261.802 42.5881 261.719C42.4193 261.084 41.502 260.743 41.8738 259.896C41.8127 259.839 41.7539 259.78 41.6952 259.722C41.3846 259.663 41.1888 259.501 41.1717 259.165C41.0519 258.955 40.8757 258.832 40.6286 258.817C40.2886 259.535 39.814 259.731 39.1486 259.202C38.4783 258.879 37.9597 259.396 37.3701 259.516C37.1964 259.489 37.0227 259.459 36.8466 259.432C36.5286 259.687 36.2057 259.937 35.8901 260.199C35.6137 260.427 35.3348 260.516 35.0265 260.261C34.9629 260.266 34.9018 260.268 34.8382 260.27L34.8504 260.248C34.1875 260.552 33.5857 260.822 33.116 259.886C32.93 259.518 32.3429 259.771 31.9442 259.687C31.3497 260.028 31.4035 259.261 31.061 259.168C30.8409 258.994 30.6378 258.719 30.3883 258.737C30.3834 258.844 30.3736 258.952 30.3712 259.062C30.3027 259.477 30.0654 259.798 29.7841 260.092C29.6446 260.251 29.4318 260.332 29.3193 260.52C29.2679 260.606 29.2116 260.67 29.1554 260.721C28.9596 261.072 28.6196 261.067 28.2575 260.802C27.9689 260.589 27.69 260.501 27.3964 260.518C27.2912 260.565 27.1885 260.638 27.0858 260.756C27.0148 260.802 26.9365 260.834 26.8534 260.854C26.824 260.851 26.7995 260.846 26.7751 260.841C26.6307 260.998 26.4497 261.096 26.2907 261.006C25.6424 260.633 25.1996 260.903 24.7666 261.229C24.7373 261.363 24.7153 261.496 24.7471 261.633C24.5881 262.084 24.456 262.559 23.8933 262.679C23.9471 262.777 23.9349 262.865 23.8272 262.946L23.8346 262.954C23.7783 263.128 23.6951 263.28 23.5215 263.358C23.5215 263.721 23.2254 263.917 22.9441 264.12C22.7215 264.157 22.5111 264.24 22.2958 264.306C22.3056 264.345 22.2861 264.385 22.2322 264.424C22.2273 264.475 22.22 264.524 22.2127 264.573C22.1001 264.581 21.9901 264.59 21.8775 264.598C21.4421 264.904 21.2439 264.559 21.0066 264.292C20.4929 263.708 20.0941 262.959 19.1596 262.959C19.1058 262.966 19.0496 262.971 18.9957 262.976C18.9395 263.02 18.8857 263.027 18.8343 262.995C18.7976 263.035 18.7609 263.081 18.7291 263.135C18.2936 263.324 17.7579 262.807 17.3714 263.333C17.3543 263.385 17.3396 263.439 17.3273 263.493C17.2662 263.534 17.205 263.574 17.1439 263.613C16.8136 264 16.4883 264.392 16.0846 264.703C15.8718 264.791 15.6345 264.779 15.5073 264.615C14.9397 263.89 14.0077 263.542 13.5747 262.674C13.2664 262.062 12.8946 262.647 12.5497 262.674C12.5497 262.696 12.5423 262.716 12.5399 262.738C12.2219 263.257 11.7473 263.476 11.1602 263.623C10.3406 263.828 9.57249 264.206 8.73584 264.397C8.21477 264.515 8.17319 265.304 7.60808 265.475C7.39036 265.632 7.21422 265.833 7.0332 266.024C6.42895 266.235 6.25771 265.674 6.00329 265.377C5.80025 265.142 5.61188 265.009 5.39905 264.997C5.24493 265.039 5.0957 265.105 4.94159 265.181C4.95137 265.497 4.78502 265.627 4.46944 265.492C4.23215 265.394 4.02177 265.345 3.78936 265.465C3.73799 265.527 3.68906 265.59 3.64014 265.652C3.19491 265.355 2.96495 264.703 2.302 264.76C2.302 264.764 2.302 264.767 2.302 264.772C2.09161 265.257 1.78093 265.21 1.48003 264.887C1.22806 264.62 1.18158 264.26 1.0984 263.902C0.954068 263.28 0.792611 262.623 0 262.464V242.971L0.0611582 242.954L0.447678 244.213L1.02746 243.848L1.89835 244.407V243.583L2.76924 242.954L3.25362 244.066L4.02666 243.848C4.02666 243.848 4.60888 243.728 4.80214 243.534C4.9954 243.341 5.67304 242.275 5.71952 242.662C5.76844 243.049 6.01063 244.115 6.01063 244.115L6.8326 243.662L7.26804 242.579L7.94568 243.662H8.62331L9.2985 243.049C9.2985 243.049 10.3627 243.728 10.3627 243.873C10.3627 244.017 11.0403 243.436 11.0403 243.436L11.3803 242.807L12.0555 242.275L12.7821 242.711L13.5086 242.275L14.766 241.741L15.3947 242.517V243.243C15.3947 243.243 16.6032 242.469 16.7476 242.469C16.8919 242.469 17.2319 242.711 17.2319 242.711L18.4404 242.613L18.9737 241.741L19.8446 242.758L20.6177 241.741V242.905L21.102 243.243L21.6818 242.517L22.4549 242.564L23.2303 241.741C23.2303 241.741 23.4701 241.258 23.5679 241.498C23.6658 241.741 23.9055 242.128 23.9055 242.37V243.088L24.9697 242.613V242.177L25.2608 241.432L25.6473 242.128L26.0828 241.432H26.7115L27.0026 241.934L27.487 241.983L28.2111 241.432L29.033 241.015L29.6128 240.724L30.2904 241.015L30.677 241.354L31.2103 241.16L31.7411 240.288L32.8053 239.707H33.7251L34.3538 239.126L35.2247 239.513L35.6112 239.658L35.8534 239.126L36.3843 238.398H38.3682L38.8037 237.867H39.2391L39.4813 238.254L40.3522 237.867L41.9961 236.945L42.5759 237.284L43.7379 237.72H44.7042L44.9464 238.011L45.5262 237.477L46.5439 236.945H47.7034L47.9945 236.558H48.9119L49.6874 235.879L50.3161 235.105V236.46L50.847 236.509L51.5246 236.122L52.782 235.637L53.2664 235.105L53.9905 235.83L54.8614 235.781L55.4901 235.928L56.4588 235.879C56.4588 235.879 56.8943 235.781 56.9897 235.975C57.0875 236.171 57.3762 236.411 57.3762 236.411L57.9584 235.928V235.588L58.6336 235.105L59.0226 235.781L59.3602 236.365L59.7956 235.928L60.0378 235.443L60.4243 235.105H61.053V235.443L61.7307 235.105H62.0193L62.3105 235.588L62.648 235.879L63.3746 235.443L64.0033 235.781L64.4388 235.105H65.1653V236.122L65.8405 235.781L66.0827 235.345L66.3738 234.814L66.616 235.25L67.0514 234.814V235.152L67.5823 235.201L68.0667 234.571H68.4532V235.345L69.1797 234.571L69.6152 234.279V235.201L70.0506 234.814L70.5326 235.105L70.8237 234.814L71.1613 234.279H72.3722L72.6609 234.863L72.9031 234.765L73.8694 234.571L74.1605 234.909L74.4981 235.201L74.8381 234.279L75.3225 234.765L75.6111 234.279H76.0955L76.6753 234.958L77.0153 235.394V235.007H77.6905L78.0306 235.443L78.5149 235.345L79.288 235.25L79.6256 235.492L80.1099 235.928L80.6408 236.073L81.0298 236.218L81.5606 235.975L81.8517 235.539L82.5758 235.105L83.0602 235.25V235.007L83.3978 234.279L84.2687 233.797L84.5109 233.456H84.9953V233.603L85.9151 233.456L86.397 234.086L86.9792 234.377L87.3658 233.456H87.7033V233.892L87.9455 234.086L88.381 234.279L88.6232 233.699V233.069L89.154 233.409L89.7362 233.892L89.976 233.99V233.699L90.6536 233.456V233.069H91.4291L91.911 232.731L92.5887 232.344L92.8798 232.826V233.311L93.2663 232.584V231.76L93.9904 232.052L94.2815 231.229V230.986L94.717 231.373V231.567L95.3457 231.518L95.6833 231.278L96.1187 232.003V232.731L96.3609 232.78L96.7474 232.488L97.2318 232.246H97.8605V231.858L98.4892 231.714L98.7314 232.197L99.1668 231.809L99.458 231.278V231.858L100.038 232.003L100.424 231.809H101.344L101.102 230.986L101.344 231.229L101.731 230.986L101.973 230.307L102.553 231.035V231.809L102.844 232.246L103.23 232.537L103.472 231.907L103.859 231.471L104.537 231.567V232.101L104.294 232.682L104.779 232.101L105.212 231.76L105.503 232.052L106.083 232.295L106.374 232.003V232.439L106.858 232.731L107.729 232.537L108.358 232.633L108.695 232.875H109.275L109.953 232.826L110.679 232.78L111.017 233.02L111.354 233.262L111.79 232.78L112.032 232.973L112.808 232.439V231.471L113.243 232.39L113.774 232.101L114.354 232.537V231.714L114.936 231.373L115.516 230.986L116.095 231.373L116.387 231.858L116.868 231.616L117.16 232.003L117.451 232.826V232.246L118.561 231.809V232.584L118.997 232.826L119.337 232.246L119.966 232.731L120.401 232.197V231.471L121.174 232.003L121.609 231.907L122.143 232.537C122.143 232.537 122.625 232.148 122.576 231.907C122.529 231.665 122.581 230.888 122.581 230.888L123.253 232.101L122.965 232.488L123.593 232.633V233.069L124.075 232.826L124.464 232.197L124.995 232.148L125.673 231.76C125.673 231.76 125.915 231.567 126.01 231.714C126.108 231.858 126.302 232.439 126.302 232.439L126.688 231.954L127.317 231.518L127.801 231.665V231.18H128.237L128.574 231.518L129.059 231.809L129.736 232.439V231.809L130.172 231.324L130.558 230.065L131.236 230.501L131.767 230.743V231.471L132.589 231.084L132.975 231.567V232.731L133.508 232.148L133.944 232.731L134.379 232.924V234.039L134.766 233.65C134.766 233.65 134.959 233.311 135.103 233.505C135.25 233.699 135.395 234.377 135.395 234.377V235.007L136.023 234.669L136.265 234.814L136.652 235.345L136.41 236.122L137.038 235.686L137.474 235.007L138.054 235.345L138.587 235.539L139.071 235.345L139.409 235.928L139.844 236.073V237.671L140.957 237.406L141.246 236.896L142.022 236.509L142.457 236.46C142.457 236.46 142.939 236.316 143.086 236.411C143.23 236.509 143.521 237.09 143.521 237.09V236.316L144.294 236.073V236.605L144.779 236.122L145.214 236.073L145.696 236.218L145.938 236.801L146.423 236.605V235.83H146.907L147.487 236.267C147.487 236.267 147.389 236.558 147.487 236.654C147.582 236.752 148.211 237.188 148.211 237.188V237.406L149.035 237.139L149.468 236.703H150.195L150.679 236.365L151.357 235.686L151.839 235.105L152.516 235.345V234.716L153.05 234.086L153.532 234.571L154.016 235.007L154.307 235.637L154.645 235.056H155.176L156.338 235.299L156.724 235.007H156.966L157.304 234.426L158.079 234.669L158.322 233.941L159.288 233.699H159.723L160.061 233.99L160.401 234.814L160.739 233.892L160.981 233.456L161.318 232.973V232.439L161.707 232.148L162.143 232.39L162.578 231.907L163.011 231.084L163.882 231.567V232.101L164.366 233.36V231.954H164.802L165.237 231.518L165.528 230.792L166.157 230.986L166.495 230.694L167.028 231.084L167.415 230.841V230.307L168.332 229.822L168.672 229.484L169.107 229.727V229.484L169.832 229.776L170.172 228.805L170.896 228.126H171.089L171.331 228.661L171.042 229.29L171.573 228.467L172.107 228.418L172.493 228.563L173.171 228.71L172.929 227.788L173.171 227.208H173.653L173.895 226.965H175.588L175.928 226.627H176.603V227.497L176.845 226.627L177.087 226.044H177.474L177.716 226.867L177.958 226.044L178.296 225.754V226.627L178.829 226.142L179.216 225.754H179.507V226.627L179.942 225.463L180.571 225.22L180.908 225.705L181.246 225.463L181.586 225.754L181.875 225.801L182.264 225.22L182.699 224.689L183.132 225.076L183.617 224.689V224.446H184.196L184.632 223.669L185.021 224.01L185.358 224.252H185.843V224.64L186.809 225.269V224.64L187.438 225.414L187.778 225.561V224.542L188.066 224.203L188.358 224.348L188.744 224.542L189.471 224.059L189.953 224.154L189.835 224.608L189.615 225.463L190.437 223.669C190.437 223.669 190.872 224.01 190.872 224.154V224.784L191.21 224.397L191.645 223.669L192.13 224.299L192.661 223.669L192.952 222.993L193.194 223.282L193.725 223.429V222.41H194.016L194.645 221.974V222.216L195.467 222.508L195.951 222.993V222.41L196.435 221.733L196.822 222.459L197.064 222.121C197.064 222.121 197.353 221.491 197.499 221.733C197.644 221.974 198.175 222.557 198.175 222.557L198.564 222.508L198.852 222.216V221.974C198.852 221.974 198.95 221.621 199.094 221.677C199.239 221.733 199.821 222.072 199.821 222.072L200.208 221.878V221.15L200.45 220.861H200.836L201.367 220.52L201.803 220.133V219.602H202.965L203.253 219.31L203.642 219.746V219.31C203.642 219.31 203.835 218.923 204.078 218.923H204.802C204.802 218.923 205.43 217.906 205.335 218.146C205.237 218.389 205.093 220.084 205.093 220.084L205.577 220.697L206.01 221.248L205.722 219.553V218.923L206.35 219.746L206.592 219.648L207.172 219.504L207.559 219.842V220.714L208.188 220.182L208.623 219.553L208.865 219.94V220.327L209.445 219.94C209.445 219.94 209.638 220.133 209.687 220.376C209.736 220.618 209.929 221.055 209.929 221.055C209.929 221.055 210.509 220.57 210.607 220.861L210.702 221.15L211.573 220.425H212.444L213.41 220.278L214.186 220.327L214.621 219.891L215.394 219.989C215.394 219.989 215.152 219.359 215.394 219.359C215.637 219.359 216.507 220.133 216.507 220.133L216.845 220.763V221.344L217.329 220.52H217.716L218.685 220.084C218.685 220.084 219.022 220.619 219.022 220.812V221.974L219.749 221.006L220.086 220.52L220.666 221.104L221.537 221.248L222.264 221.491L222.746 222.363V222.895L223.181 222.41L223.472 222.895L224.343 222.993L224.681 223.38L225.116 223.331V222.701L225.843 222.944L225.6 222.314L225.843 221.927L226.327 222.121L226.616 221.248L226.907 221.878V222.41L227.342 222.023H228.02L228.309 222.508L228.937 223.137V223.669L229.517 224.059V223.039L230.823 222.846V223.476L231.599 222.846L232.13 223.039L232.807 223.331L233.387 223.236L233.872 223.38L234.307 223.865L234.887 224.105L235.224 224.446V224.882L235.613 224.299L236.144 223.669L236.484 223.525L236.724 223.623L237.159 223.865L237.693 223.38H237.981L238.417 224.01L238.852 223.669H239.143L239.434 224.01L239.674 224.397L240.256 224.01H240.643C240.643 224.01 241.272 223.816 241.223 224.01C241.174 224.203 240.981 224.882 240.981 224.882L241.563 224.105L242.191 223.816V224.252L242.965 224.397L243.495 224.299C243.495 224.299 243.786 223.669 243.835 223.865C243.884 224.059 244.124 224.689 244.124 224.689L244.513 223.816H245.286V224.446L245.817 223.525V224.105L246.301 223.767C246.301 223.767 246.786 223.865 246.835 224.01C246.881 224.154 247.172 224.64 247.172 224.64L247.801 224.299V224.833L248.816 224.689L249.398 225.365V226.142L249.785 225.171L249.543 224.495L250.316 224.978V225.705L250.8 224.591L251.236 224.203L251.913 224.689L252.542 224.397V223.961L253.364 224.542L253.944 224.252L254.477 224.64L254.766 224.397L255.685 224.64L255.345 223.865L255.977 224.203L256.363 223.669L257.523 224.446L257.909 224.105L258.587 223.476L259.264 223.912L259.844 224.105L260.424 223.718L261.248 225.318L260.859 223.718L261.248 223.623L261.586 223.865V222.895L262.264 223.476V223.039L262.988 222.603L263.377 222.895L263.665 223.088L264.052 222.314L264.536 222.799C264.536 222.799 265.214 222.701 265.263 222.846C265.309 222.993 265.503 223.476 265.503 223.476L265.794 221.974L266.134 221.635L266.809 221.537L267.922 222.072L268.695 222.121L269.228 221.684L269.615 220.861L270.292 221.248L271.066 221.15L271.308 220.763L271.792 219.891L272 219.932V219.932Z" fill="#F0E74D"/>
</svg>
